<svg width="110" height="81" viewBox="0 0 110 81" fill="none" xmlns="http://www.w3.org/2000/svg">
<path d="M73.5374 29.87C77.043 30.7391 80.2436 31.5294 83.7918 32.4082C83.218 32.9067 82.9195 33.2215 82.5719 33.4576C69.5564 42.2658 55.5898 48.9884 40.2295 52.6055C33.6217 54.1631 26.9385 54.9174 20.1503 54.1107C16.9825 53.7336 16.9858 53.7172 16.2053 50.6543C11.7848 33.3133 18.4812 16.0838 33.4348 6.32463C47.7129 -2.99516 67.133 -1.91627 80.3486 8.90872C84.3657 12.1979 87.645 16.0937 90.2521 20.5765C90.8587 21.6193 90.8063 22.1014 89.5995 22.6228C84.5067 24.8199 79.4632 27.1253 74.4032 29.3945C74.2064 29.4831 74.0228 29.6011 73.5374 29.87Z" fill="#558479"/>
<path d="M14.4345 31.8835C13.0506 34.2873 11.6405 36.5106 10.4633 38.8521C9.18762 41.387 8.3514 44.0793 8.49896 46.988C8.62686 49.5065 9.68279 51.5364 11.7356 52.9859C15.2445 55.465 19.3141 56.0914 23.4592 56.2422C32.6445 56.5701 41.4691 54.6091 50.1166 51.7365C63.2962 47.3586 75.4394 40.9607 86.6645 32.7952C87.0908 32.4836 87.4909 32.136 88.1828 31.5753C85.1429 30.8112 82.4506 30.1357 79.755 29.4568C79.7386 29.3191 79.7222 29.1814 79.7058 29.0437C89.6126 24.6133 99.5161 20.183 109.423 15.7526C109.541 15.8674 109.662 15.9855 109.78 16.1002C105.812 26.2038 101.844 36.3073 97.8764 46.4076C97.7289 46.401 97.578 46.3945 97.4305 46.3879C96.5811 43.4988 95.7351 40.613 94.8136 37.478C94.1052 37.9929 93.5609 38.3798 93.0231 38.7799C78.0596 49.9427 61.6368 58.0819 43.4859 62.5877C36.9633 64.2077 30.3227 65.1685 23.5739 64.8963C17.4351 64.6471 11.47 63.5256 6.5281 59.574C4.65562 58.0754 2.98973 56.1504 1.71736 54.1172C-0.968392 49.8148 0.271186 45.6271 2.96678 41.8198C5.86568 37.7273 9.71887 34.625 13.9557 31.9885C14.0574 31.9262 14.205 31.9327 14.4279 31.8835H14.4345Z" fill="#274940"/>
<path opacity="0.8" d="M75.1869 56.2193C68.9891 61.4727 62.132 65.7489 54.8979 69.3988C49.5264 72.1108 43.9516 74.344 38.0947 75.7967C37.4421 75.9574 36.5862 75.8754 35.9894 75.5737C32.0214 73.5799 28.6405 70.8023 25.6629 67.5296C25.5546 67.4083 25.512 67.2279 25.3448 66.8836C36.3403 66.5852 46.7619 64.188 56.9245 60.4725C68.202 56.3472 78.7712 50.8183 88.8256 44.2203C84.2411 48.1751 79.8075 52.3071 75.1869 56.2226V56.2193Z" fill="#558479"/>
<path opacity="0.8" d="M89.688 49.0573C89.688 49.0573 89.6913 49.0573 89.6946 49.0573C86.94 52.2054 84.2706 55.4355 81.411 58.4885C76.9873 63.2107 72.2716 67.6542 66.9887 71.409C63.1519 74.1374 59.1118 76.5772 55.1668 79.1547C53.7698 80.0664 52.3138 80.532 50.6052 80.1746C48.3622 79.7089 46.0929 79.3679 43.7876 78.7219C44.5352 78.4562 45.2764 78.1808 46.0109 77.8987C62.719 71.5402 76.9282 61.5121 89.3929 48.8211C90.2389 48.0571 91.1145 47.2372 92.0262 46.3649C91.2457 47.2668 90.4652 48.162 89.688 49.054V49.0573Z" fill="#558479"/>
<path opacity="0.4" d="M62.778 79.4564C74.8557 71.5107 84.9921 61.8138 93.7281 50.3755C92.564 62.6434 74.6262 79.5384 62.778 79.4564Z" fill="#558479"/>
</svg>
