<svg width="128" height="128" viewBox="0 0 128 128" fill="none" xmlns="http://www.w3.org/2000/svg">
<g id="horse-light 1">
<path id="Vector" d="M71.0051 50C71.0051 50.9889 70.7119 51.9556 70.1625 52.7778C69.613 53.6001 68.8322 54.241 67.9185 54.6194C67.0049 54.9978 65.9996 55.0969 65.0297 54.9039C64.0597 54.711 63.1688 54.2348 62.4696 53.5355C61.7703 52.8363 61.2941 51.9454 61.1012 50.9754C60.9083 50.0055 61.0073 49.0002 61.3857 48.0866C61.7641 47.173 62.405 46.3921 63.2273 45.8426C64.0495 45.2932 65.0162 45 66.0051 45C67.3312 45 68.603 45.5268 69.5406 46.4645C70.4783 47.4021 71.0051 48.6739 71.0051 50ZM119.005 64.725C118.784 77.9372 113.457 90.551 104.142 99.9231C94.8269 109.295 82.2457 114.698 69.0351 115H67.9701C55.4608 115.084 43.3626 110.537 34.0051 102.235C33.7011 101.975 33.4521 101.658 33.2727 101.3C33.0933 100.943 32.9871 100.554 32.9603 100.155C32.9336 99.7557 32.9868 99.3555 33.1169 98.9775C33.2471 98.5995 33.4514 98.2513 33.718 97.9534C33.9846 97.6555 34.3081 97.4138 34.6694 97.2427C35.0306 97.0716 35.4225 96.9744 35.8219 96.9568C36.2213 96.9393 36.6202 97.0017 36.9951 97.1405C37.37 97.2793 37.7134 97.4916 38.0051 97.765C41.3005 100.71 45.0248 103.136 49.0501 104.96L63.5501 85.015C51.5851 79.33 38.4601 81.55 31.1501 82.79C28.3851 83.273 25.5398 82.9662 22.9413 81.9048C20.3428 80.8435 18.0964 79.0707 16.4601 76.79C16.4206 76.7387 16.3839 76.6853 16.3501 76.63L9.4551 65.63C9.24551 65.2942 9.10444 64.9203 9.04001 64.5298C8.97558 64.1392 8.98907 63.7398 9.0797 63.3545C9.17033 62.9692 9.33631 62.6057 9.56808 62.2848C9.79984 61.964 10.0928 61.6921 10.4301 61.485L61.0051 30.325V16C61.0051 15.2044 61.3212 14.4413 61.8838 13.8787C62.4464 13.3161 63.2095 13 64.0051 13H68.0051C74.764 12.9993 81.4555 14.3421 87.6909 16.9503C93.9262 19.5585 99.5809 23.3801 104.326 28.193C109.072 33.0058 112.813 38.7139 115.333 44.9854C117.853 51.257 119.101 57.9668 119.005 64.725ZM113.005 64.64C113.09 58.6769 111.989 52.7564 109.765 47.2226C107.542 41.6889 104.24 36.6523 100.053 32.4057C95.8662 28.159 90.8768 24.787 85.375 22.4856C79.8732 20.1842 73.9688 18.9994 68.0051 19H67.0051V32C67.0049 32.5126 66.8733 33.0165 66.623 33.4638C66.3726 33.9111 66.0119 34.2868 65.5751 34.555L16.1501 64.97L21.3851 73.34C22.3721 74.6879 23.7165 75.7328 25.2663 76.3566C26.8161 76.9804 28.5095 77.1582 30.1551 76.87C38.0651 75.535 54.3651 72.78 68.7701 80.98C74.2025 80.782 79.3465 78.4851 83.1203 74.5724C86.8941 70.6597 89.0035 65.436 89.0051 60C89.0051 59.2043 89.3212 58.4413 89.8838 57.8787C90.4464 57.3161 91.2095 57 92.0051 57C92.8008 57 93.5638 57.3161 94.1264 57.8787C94.689 58.4413 95.0051 59.2043 95.0051 60C94.9967 66.887 92.3598 73.5111 87.6328 78.5197C82.9057 83.5283 76.4451 86.5436 69.5701 86.95L54.8901 107.135C59.4423 108.47 64.1723 109.099 68.9151 109C80.5703 108.73 91.6693 103.962 99.8877 95.6933C108.106 87.4245 112.807 76.2966 113.005 64.64Z" fill="black" fill-opacity="0.2"/>
</g>
</svg>
