<svg width="18" height="18" viewBox="0 0 18 18" fill="none" xmlns="http://www.w3.org/2000/svg">
<path d="M1.71632 9.58547H9.83808V8.44385H1.71632C1.39991 8.44385 1.14551 8.69825 1.14551 9.01466C1.14551 9.33107 1.39991 9.58547 1.71632 9.58547Z" fill="black"/>
<path d="M16.1203 8.44394H13.9873V9.58556H16.1203C16.4367 9.58556 16.6911 9.33116 16.6911 9.01475C16.6911 8.69834 16.4367 8.44394 16.1203 8.44394Z" fill="black"/>
<path d="M11.5005 6.97826H12.3264C12.8077 6.97826 13.1983 7.45958 13.1983 7.85013V10.1787C13.1983 10.66 12.8077 11.0505 12.3264 11.0505H11.5005C11.0192 11.0505 10.6287 10.5692 10.6287 10.1787V7.85013C10.6287 7.36881 11.0192 6.97826 11.5005 6.97826Z" fill="black"/>
<path d="M16.1203 13.7844H7.99854V14.926H16.1203C16.4367 14.926 16.6911 14.6716 16.6911 14.3552C16.6911 14.0388 16.4367 13.7844 16.1203 13.7844Z" fill="black"/>
<path d="M1.14551 14.3553C1.14551 14.6717 1.39991 14.9261 1.71632 14.9261H3.84932V13.7845H1.71632C1.39991 13.7845 1.14551 14.0389 1.14551 14.3553Z" fill="black"/>
<path d="M5.51005 12.3193H6.33591C6.81723 12.3193 7.20778 12.8007 7.20778 13.1912V15.5198C7.20778 16.0011 6.81723 16.3916 6.33591 16.3916H5.51005C5.02873 16.3916 4.63818 15.9103 4.63818 15.5198V13.1912C4.63818 12.7099 5.02873 12.3193 5.51005 12.3193Z" fill="black"/>
<path d="M16.6909 3.67215C16.6909 3.35574 16.4365 3.10133 16.1201 3.10133H7.99829V4.24296H16.1201C16.4365 4.24296 16.6909 3.98855 16.6909 3.67215Z" fill="black"/>
<path d="M1.71632 4.24306H3.84932V3.10144L1.71632 3.1008C1.39991 3.1008 1.14551 3.35521 1.14551 3.67161C1.14551 3.98802 1.39991 4.24243 1.71632 4.24243V4.24306Z" fill="black"/>
<path d="M5.51005 1.63637H6.33591C6.81723 1.63637 7.20778 2.11769 7.20778 2.50824V4.83678C7.20778 5.3181 6.81723 5.70866 6.33591 5.70866H5.51005C5.02873 5.70866 4.63818 5.22734 4.63818 4.83678V2.50824C4.63818 2.02692 5.02873 1.63637 5.51005 1.63637Z" fill="black"/>
</svg>
