<svg width="24" height="25" viewBox="0 0 24 25" fill="none" xmlns="http://www.w3.org/2000/svg">
<mask id="mask0_25_429" style="mask-type:alpha" maskUnits="userSpaceOnUse" x="0" y="0" width="24" height="25">
<rect y="0.5" width="24" height="24" fill="#D9D9D9"/>
</mask>
<g mask="url(#mask0_25_429)">
<path d="M10.6 13.75L8.45 11.6C8.26667 11.4167 8.03333 11.325 7.75 11.325C7.46667 11.325 7.23333 11.4167 7.05 11.6C6.86667 11.7833 6.775 12.0167 6.775 12.3C6.775 12.5833 6.86667 12.8167 7.05 13L9.9 15.85C10.1 16.05 10.3333 16.15 10.6 16.15C10.8667 16.15 11.1 16.05 11.3 15.85L16.95 10.2C17.1333 10.0167 17.225 9.78333 17.225 9.5C17.225 9.21667 17.1333 8.98333 16.95 8.8C16.7667 8.61667 16.5333 8.525 16.25 8.525C15.9667 8.525 15.7333 8.61667 15.55 8.8L10.6 13.75ZM5 21.5C4.45 21.5 3.97917 21.3042 3.5875 20.9125C3.19583 20.5208 3 20.05 3 19.5V5.5C3 4.95 3.19583 4.47917 3.5875 4.0875C3.97917 3.69583 4.45 3.5 5 3.5H9.2C9.41667 2.9 9.77917 2.41667 10.2875 2.05C10.7958 1.68333 11.3667 1.5 12 1.5C12.6333 1.5 13.2042 1.68333 13.7125 2.05C14.2208 2.41667 14.5833 2.9 14.8 3.5H19C19.55 3.5 20.0208 3.69583 20.4125 4.0875C20.8042 4.47917 21 4.95 21 5.5V19.5C21 20.05 20.8042 20.5208 20.4125 20.9125C20.0208 21.3042 19.55 21.5 19 21.5H5ZM12 4.75C12.2167 4.75 12.3958 4.67917 12.5375 4.5375C12.6792 4.39583 12.75 4.21667 12.75 4C12.75 3.78333 12.6792 3.60417 12.5375 3.4625C12.3958 3.32083 12.2167 3.25 12 3.25C11.7833 3.25 11.6042 3.32083 11.4625 3.4625C11.3208 3.60417 11.25 3.78333 11.25 4C11.25 4.21667 11.3208 4.39583 11.4625 4.5375C11.6042 4.67917 11.7833 4.75 12 4.75Z" fill="white"/>
</g>
</svg>
