<svg width="22" height="20" viewBox="0 0 22 20" fill="none" xmlns="http://www.w3.org/2000/svg">
<path d="M12.3135 7.375C12.3135 7.56042 12.2585 7.74168 12.1555 7.89585C12.0524 8.05002 11.906 8.17018 11.7347 8.24114C11.5634 8.31209 11.3749 8.33066 11.1931 8.29449C11.0112 8.25831 10.8442 8.16902 10.713 8.03791C10.5819 7.9068 10.4926 7.73975 10.4565 7.5579C10.4203 7.37604 10.4389 7.18754 10.5098 7.01623C10.5808 6.84493 10.7009 6.69851 10.8551 6.5955C11.0093 6.49248 11.1905 6.4375 11.376 6.4375C11.6246 6.4375 11.8631 6.53627 12.0389 6.71209C12.2147 6.8879 12.3135 7.12636 12.3135 7.375ZM21.3135 10.1359C21.272 12.6132 20.2733 14.9783 18.5266 16.7356C16.78 18.4929 14.4211 19.5059 11.9441 19.5625H11.7444C9.3989 19.5783 7.13049 18.7257 5.37596 17.1691C5.31896 17.1204 5.27227 17.0608 5.23863 16.9938C5.20499 16.9268 5.18508 16.8538 5.18006 16.779C5.17505 16.7042 5.18503 16.6292 5.20943 16.5583C5.23382 16.4874 5.27214 16.4221 5.32213 16.3663C5.37211 16.3104 5.43276 16.2651 5.5005 16.233C5.56825 16.2009 5.64172 16.1827 5.71661 16.1794C5.79149 16.1761 5.86628 16.1878 5.93658 16.2138C6.00688 16.2399 6.07126 16.2797 6.12596 16.3309C6.74384 16.8831 7.44214 17.338 8.19689 17.68L10.9156 13.9403C8.67221 12.8744 6.21127 13.2906 4.84064 13.5231C4.3222 13.6137 3.78872 13.5562 3.3015 13.3572C2.81427 13.1582 2.39307 12.8257 2.08627 12.3981C2.07886 12.3885 2.07198 12.3785 2.06564 12.3681L0.772832 10.3056C0.733534 10.2427 0.707083 10.1726 0.695002 10.0993C0.682922 10.0261 0.685451 9.95122 0.702444 9.87897C0.719437 9.80673 0.750559 9.73856 0.794015 9.6784C0.837471 9.61824 0.892402 9.56727 0.955644 9.52844L10.4385 3.68594V1C10.4385 0.850816 10.4977 0.707742 10.6032 0.602252C10.7087 0.496763 10.8518 0.4375 11.001 0.4375H11.751C13.0182 0.437372 14.2729 0.689145 15.442 1.17818C16.6112 1.66722 17.6714 2.38377 18.5612 3.28618C19.4509 4.18859 20.1525 5.25885 20.6249 6.43477C21.0974 7.61068 21.3315 8.86878 21.3135 10.1359ZM20.1885 10.12C20.2044 9.00191 19.9979 7.89182 19.581 6.85424C19.1641 5.81667 18.5451 4.87231 17.76 4.07606C16.9749 3.27981 16.0394 2.64756 15.0078 2.21605C13.9762 1.78454 12.8692 1.56239 11.751 1.5625H11.5635V4C11.5634 4.09611 11.5387 4.1906 11.4918 4.27446C11.4449 4.35833 11.3772 4.42877 11.2953 4.47906L2.02814 10.1819L3.00971 11.7512C3.19477 12.004 3.44685 12.1999 3.73744 12.3169C4.02802 12.4338 4.34554 12.4672 4.65408 12.4131C6.13721 12.1628 9.19346 11.6462 11.8944 13.1837C12.913 13.1466 13.8775 12.716 14.5851 11.9823C15.2926 11.2487 15.6882 10.2693 15.6885 9.25C15.6885 9.10081 15.7477 8.95774 15.8532 8.85225C15.9587 8.74676 16.1018 8.6875 16.251 8.6875C16.4001 8.6875 16.5432 8.74676 16.6487 8.85225C16.7542 8.95774 16.8135 9.10081 16.8135 9.25C16.8119 10.5413 16.3175 11.7833 15.4311 12.7224C14.5448 13.6615 13.3335 14.2269 12.0444 14.3031L9.29189 18.0878C10.1454 18.3381 11.0323 18.456 11.9216 18.4375C14.1069 18.387 16.188 17.4929 17.7289 15.9425C19.2699 14.3921 20.1513 12.3056 20.1885 10.12Z" fill="white"/>
</svg>
