<svg width="200" height="200" viewBox="0 0 200 200" fill="none" xmlns="http://www.w3.org/2000/svg">
<rect width="200" height="200" rx="4" fill="#D7A674"/>
<rect x="0.5" y="0.5" width="199" height="199" rx="3.5" stroke="black" stroke-opacity="0.1"/>
<path d="M83.4023 85.0884H109.402V99.0884H113.402V85.0884C113.402 82.8824 111.608 81.0884 109.402 81.0884H83.4023C81.1963 81.0884 79.4023 82.8824 79.4023 85.0884V109.088C79.4023 111.294 81.1963 113.088 83.4023 113.088H99.4023V109.088H83.4023V85.0884Z" fill="white"/>
<path d="M91.4023 97.0884L85.4023 105.088H107.402L99.4023 93.0884L93.4023 101.088L91.4023 97.0884Z" fill="white"/>
<path d="M113.402 103.088H109.402V109.088H103.402V113.088H109.402V119.088H113.402V113.088H119.402V109.088H113.402V103.088Z" fill="white"/>
</svg>
