<svg width="24" height="24" viewBox="0 0 24 24" fill="none" xmlns="http://www.w3.org/2000/svg">
<path d="M20.9531 7.10608L17.0471 3.20001H8.74668C8.21967 3.20001 7.71424 3.40937 7.34159 3.78202C6.96894 4.15467 6.75958 4.6601 6.75958 5.18711V10.0129H8.46281V5.18711C8.46281 5.11182 8.49272 5.03962 8.54595 4.98638C8.59919 4.93315 8.67139 4.90324 8.74668 4.90324H15.8435V8.30969H19.2499V18.8129C19.2499 18.8882 19.22 18.9604 19.1668 19.0136C19.1135 19.0669 19.0413 19.0968 18.966 19.0968H13.2886V20.8H18.966C19.493 20.8 19.9985 20.5907 20.3711 20.218C20.7438 19.8454 20.9531 19.3399 20.9531 18.8129V7.10608Z" fill="white"/>
<path d="M5.22954 20.8L7.04348 18.0777L8.86025 20.8H10.9041L8.06541 16.5419L10.9041 12.2839H8.86025L7.04348 15.0062L5.22954 12.2839H3.17999L6.0187 16.5419L3.17999 20.8H5.22954Z" fill="white"/>
</svg>
