<svg width="24" height="24" viewBox="0 0 24 24" fill="none" xmlns="http://www.w3.org/2000/svg">
<path fill-rule="evenodd" clip-rule="evenodd" d="M12.0004 3.5C16.5514 3.5 18.8466 8.85604 15.6253 11.9765C12.404 15.0969 6.87485 12.8744 6.87485 8.46596C6.87485 5.7234 9.16919 3.5 12.0004 3.5ZM3.59249 20.2436C7.61349 14.4863 16.3902 14.4808 20.408 20.2436C20.8454 20.8704 21.8265 20.2277 21.391 19.602C16.9038 13.1664 7.09674 13.1664 2.60927 19.602C2.1728 20.2277 3.156 20.8704 3.59249 20.2436ZM14.7861 5.76746C12.3111 3.36997 8.06044 5.07621 8.06044 8.4662C8.06044 11.8562 12.3101 13.5622 14.7851 11.1649C16.3243 9.6739 16.3243 7.25787 14.7861 5.7677L14.7861 5.76746Z" fill="white"/>
</svg>
