<svg width="25" height="25" viewBox="0 0 25 25" fill="none" xmlns="http://www.w3.org/2000/svg">
<mask id="mask0_124_395" style="mask-type:alpha" maskUnits="userSpaceOnUse" x="0" y="0" width="25" height="25">
<rect x="0.5" y="0.5" width="24" height="24" fill="#D9D9D9"/>
</mask>
<g mask="url(#mask0_124_395)">
<path d="M12.325 13.5H15.5C15.7833 13.5 16.0208 13.4042 16.2125 13.2125C16.4042 13.0208 16.5 12.7833 16.5 12.5C16.5 12.2167 16.4042 11.9792 16.2125 11.7875C16.0208 11.5958 15.7833 11.5 15.5 11.5H12.325L13.225 10.6C13.4083 10.4167 13.5 10.1875 13.5 9.9125C13.5 9.6375 13.4 9.4 13.2 9.2C13.0167 9.01667 12.7833 8.925 12.5 8.925C12.2167 8.925 11.9833 9.01667 11.8 9.2L9.2 11.8C9 12 8.9 12.2333 8.9 12.5C8.9 12.7667 9 13 9.2 13.2L11.8 15.8C11.9833 15.9833 12.2125 16.0792 12.4875 16.0875C12.7625 16.0958 13 16 13.2 15.8C13.3833 15.6167 13.475 15.3833 13.475 15.1C13.475 14.8167 13.3833 14.5833 13.2 14.4L12.325 13.5ZM5.5 21.5C4.95 21.5 4.47917 21.3042 4.0875 20.9125C3.69583 20.5208 3.5 20.05 3.5 19.5V5.5C3.5 4.95 3.69583 4.47917 4.0875 4.0875C4.47917 3.69583 4.95 3.5 5.5 3.5H9.7C9.91667 2.9 10.2792 2.41667 10.7875 2.05C11.2958 1.68333 11.8667 1.5 12.5 1.5C13.1333 1.5 13.7042 1.68333 14.2125 2.05C14.7208 2.41667 15.0833 2.9 15.3 3.5H19.5C20.05 3.5 20.5208 3.69583 20.9125 4.0875C21.3042 4.47917 21.5 4.95 21.5 5.5V19.5C21.5 20.05 21.3042 20.5208 20.9125 20.9125C20.5208 21.3042 20.05 21.5 19.5 21.5H5.5ZM12.5 4.75C12.7167 4.75 12.8958 4.67917 13.0375 4.5375C13.1792 4.39583 13.25 4.21667 13.25 4C13.25 3.78333 13.1792 3.60417 13.0375 3.4625C12.8958 3.32083 12.7167 3.25 12.5 3.25C12.2833 3.25 12.1042 3.32083 11.9625 3.4625C11.8208 3.60417 11.75 3.78333 11.75 4C11.75 4.21667 11.8208 4.39583 11.9625 4.5375C12.1042 4.67917 12.2833 4.75 12.5 4.75Z" fill="white"/>
</g>
</svg>
