<svg width="127" height="49" viewBox="0 0 127 49" fill="none" xmlns="http://www.w3.org/2000/svg">
<g id="Group 6">
<path id="Vector 2" d="M20.3833 11.5321C17.5502 11.4309 14.3325 10.1845 11.5321 11.1538C6.90362 12.756 5.71171 17.895 4.38302 22.0855C2.96811 26.5479 2 30.6577 2 35.3623C2 38.9203 4.35733 43.5623 7.90082 45.1214C11.4037 46.6627 19.924 46.2265 23.3337 44.4027C27.8592 41.9821 33.1963 36.3502 33.8493 31.1259C34.6666 24.5877 32.7678 21.5844 28.8941 16.5629C26.3812 13.3054 24.8002 9.39553 22.8798 5.78258C22.2172 4.53585 21.6346 2.62565 20.3833 2" stroke="black" stroke-width="3" stroke-linecap="round"/>
<path id="Vector 3" d="M47.6179 8.80859C44.9418 13.2242 43.1774 17.9287 42.8897 23.1067C42.6959 26.5947 41.6199 29.946 41.4902 33.3197C41.1867 41.2094 49.9083 27.9041 51.7031 30.5962" stroke="black" stroke-width="3" stroke-linecap="round"/>
<path id="Vector 4" d="M59.8746 26.5107C59.7511 30.341 59.8127 35.0512 58.5129 38.6906C58.2755 39.3553 57.832 43.0035 57.832 40.8089" stroke="black" stroke-width="3" stroke-linecap="round"/>
<path id="Vector 6" d="M67.3633 29.2342C67.5366 32.1812 69.6152 31.3291 71.4485 32.6386C73.6582 34.2169 73.8974 29.9309 74.2854 28.5534C75.9535 22.6315 77.9002 16.7634 79.8458 10.9266C80.704 8.35204 80.5872 15.6899 80.6023 15.8439C81.3159 23.1054 82.0801 30.479 83.5527 37.6316C84.4203 41.8456 87.9153 50.4964 93.2361 45.2724C97.8527 40.7397 103.088 32.3688 104.016 25.8678C104.257 24.1834 104.778 20.6682 102.428 20.4208C98.9809 20.058 98.9256 28.297 98.7965 30.2555C98.6983 31.7456 97.5035 40.5116 99.1369 41.5655C101.059 42.8052 108.999 35.4617 110.485 34.4542C115.356 31.1504 119.832 30.5855 125.237 29.2342" stroke="black" stroke-width="3" stroke-linecap="round"/>
</g>
</svg>
