<svg width="24" height="25" viewBox="0 0 24 25" fill="none" xmlns="http://www.w3.org/2000/svg">
<mask id="mask0_25_413" style="mask-type:alpha" maskUnits="userSpaceOnUse" x="0" y="0" width="24" height="25">
<rect y="0.5" width="24" height="24" fill="#D9D9D9"/>
</mask>
<g mask="url(#mask0_25_413)">
<path d="M12 14.5C12.55 14.5 13.0208 14.3042 13.4125 13.9125C13.8042 13.5208 14 13.05 14 12.5C14 11.95 13.8042 11.4792 13.4125 11.0875C13.0208 10.6958 12.55 10.5 12 10.5C11.45 10.5 10.9792 10.6958 10.5875 11.0875C10.1958 11.4792 10 11.95 10 12.5C10 13.05 10.1958 13.5208 10.5875 13.9125C10.9792 14.3042 11.45 14.5 12 14.5ZM8 18.5H16V17.925C16 17.525 15.8917 17.1583 15.675 16.825C15.4583 16.4917 15.1583 16.2417 14.775 16.075C14.3417 15.8917 13.8958 15.75 13.4375 15.65C12.9792 15.55 12.5 15.5 12 15.5C11.5 15.5 11.0208 15.55 10.5625 15.65C10.1042 15.75 9.65833 15.8917 9.225 16.075C8.84167 16.2417 8.54167 16.4917 8.325 16.825C8.10833 17.1583 8 17.525 8 17.925V18.5ZM18 22.5H6C5.45 22.5 4.97917 22.3042 4.5875 21.9125C4.19583 21.5208 4 21.05 4 20.5V4.5C4 3.95 4.19583 3.47917 4.5875 3.0875C4.97917 2.69583 5.45 2.5 6 2.5H13.175C13.4417 2.5 13.6958 2.55 13.9375 2.65C14.1792 2.75 14.3917 2.89167 14.575 3.075L19.425 7.925C19.6083 8.10833 19.75 8.32083 19.85 8.5625C19.95 8.80417 20 9.05833 20 9.325V20.5C20 21.05 19.8042 21.5208 19.4125 21.9125C19.0208 22.3042 18.55 22.5 18 22.5ZM18 20.5V9.35L13.15 4.5H6V20.5H18Z" fill="white"/>
</g>
</svg>
